<mxfile host="app.diagrams.net" modified="2023-05-16T08:53:31.466Z" agent="Mozilla/5.0 (Windows NT 10.0; Win64; x64) AppleWebKit/537.36 (KHTML, like Gecko) Chrome/113.0.0.0 Safari/537.36" version="21.3.2" etag="lXKxdqwztgaCPSurM1w4" type="github">
  <diagram name="Page-1" id="43egXoJQu2A-RHyAX56x">
    <mxGraphModel>
      <root>
        <mxCell id="0" />
        <mxCell id="1" parent="0" />
      </root>
    </mxGraphModel>
  </diagram>
</mxfile>
